<?xml version="1.0" encoding="utf-8"?>
<!-- Generator: Adobe Illustrator 18.0.0, SVG Export Plug-In . SVG Version: 6.00 Build 0)  -->
<!DOCTYPE svg PUBLIC "-//W3C//DTD SVG 1.1//EN" "http://www.w3.org/Graphics/SVG/1.1/DTD/svg11.dtd">
<svg version="1.1" id="Capa_1" xmlns="http://www.w3.org/2000/svg" xmlns:xlink="http://www.w3.org/1999/xlink" x="0px" y="0px"
	 viewBox="0 0 75 75" enable-background="new 0 0 75 75" xml:space="preserve">
<g>
	<g>
		<g>
			<path fill="#DFCF37" d="M9.8,62.7C-16.6,24.9,24.8-16.4,62.5,10c1.3,0.9,2.4,2,3.3,3.3C92.2,51,50.8,92.3,13.1,66
				C11.8,65.1,10.7,64,9.8,62.7z"/>
		</g>
		<g>
			<path fill="#DFCF37" d="M56.8,7c3.6,5.7,5.7,12.4,5.7,19.6c0,20.1-16.3,36.3-36.3,36.3c-7,0-13.5-2-19-5.4
				C13.7,67.6,25,74.3,37.8,74.3c20.1,0,36.3-16.3,36.3-36.3C74.1,24.8,67.2,13.4,56.8,7z"/>
		</g>
		<g>
			<path fill="#DFCF37" d="M6.4,41.8c0-18.6,15.1-33.7,33.7-33.7c10.9,0,20.6,5.2,26.7,13.2C61.1,11.1,50.1,4.3,37.6,4.3
				C19,4.3,3.9,19.4,3.9,38.1c0,7.7,2.6,14.9,7,20.6C8,53.7,6.4,47.9,6.4,41.8z"/>
		</g>
	</g>
	<g>
		<g>
			<g>
				<ellipse fill="#333333" cx="24.4" cy="29.2" rx="2.7" ry="4.5"/>
			</g>
			<g>
				<path fill="#333333" d="M53.9,29.2c0,2.5-1.2,4.5-2.7,4.5c-1.5,0-2.7-2-2.7-4.5c0-2.5,1.2-4.5,2.7-4.5
					C52.7,24.6,53.9,26.7,53.9,29.2z"/>
			</g>
		</g>
	</g>
	<g>
		<path fill="#363636" d="M44.4,48.2c0,6.1-2.9,11.1-6.6,11.1c-3.6,0-6.6-5-6.6-11.1c0-6.1,2.9-11.1,6.6-11.1
			C41.4,37,44.4,42,44.4,48.2z"/>
		<path fill="#D26669" d="M43.3,54.1c-4.8-2.6-8.7-1.1-10.9,0.4c1.2,2.9,3.2,4.8,5.4,4.8C40.1,59.3,42.2,57.2,43.3,54.1z"/>
	</g>
</g>
</svg>
