<?xml version="1.0" encoding="utf-8"?>
<!-- Generator: Adobe Illustrator 18.0.0, SVG Export Plug-In . SVG Version: 6.00 Build 0)  -->
<!DOCTYPE svg PUBLIC "-//W3C//DTD SVG 1.1//EN" "http://www.w3.org/Graphics/SVG/1.1/DTD/svg11.dtd">
<svg version="1.1" id="Capa_1" xmlns="http://www.w3.org/2000/svg" xmlns:xlink="http://www.w3.org/1999/xlink" x="0px" y="0px"
	 viewBox="0 0 75 75" enable-background="new 0 0 75 75" xml:space="preserve">
<path fill="#DFCF37" d="M1.1,37.9c0-20.2,16.4-36.5,36.5-36.5c20.2,0,36.5,16.4,36.5,36.5c0,20.2-16.4,36.5-36.5,36.5
	C17.4,74.4,1.1,58.1,1.1,37.9"/>
<path fill="#DFCF37" d="M56.7,6.7c3.6,5.7,5.8,12.4,5.8,19.7c0,20.2-16.4,36.5-36.5,36.5c-7,0-13.6-2-19.1-5.4
	c6.5,10.1,17.9,16.9,30.8,16.9c20.2,0,36.5-16.4,36.5-36.5C74.1,24.7,67.2,13.1,56.7,6.7"/>
<path fill="#DFCF37" d="M6,41.8C6,23,21.2,7.8,39.9,7.8c11,0,20.7,5.2,26.9,13.2C61,10.9,50,4.1,37.4,4.1C18.7,4.1,3.5,19.2,3.5,38
	c0,7.8,2.6,15,7,20.7C7.7,53.7,6,47.9,6,41.8"/>
<path fill="#363636" d="M26.8,29c0,2.5-1.2,4.5-2.7,4.5c-1.5,0-2.7-2-2.7-4.5c0-2.5,1.2-4.5,2.7-4.5C25.6,24.5,26.8,26.5,26.8,29"/>
<path fill="#363636" d="M53.7,29c0,2.5-1.2,4.5-2.7,4.5c-1.5,0-2.7-2-2.7-4.5c0-2.5,1.2-4.5,2.7-4.5C52.5,24.5,53.7,26.5,53.7,29"/>
<path fill="#363636" d="M59.2,21.4c-0.4-0.1-0.8-0.2-1.1-0.3c-0.8-0.2-1.6-0.4-2.3-0.7c-1.1-0.4-2.1-0.8-3.1-1.3
	c-1-0.5-1.9-1.1-2.8-1.8c-1-0.7-1.8-1.6-2.6-2.4c0,0-0.1-0.1-0.2,0c-0.1,0-0.1,0.1-0.1,0.2c0.1,1.2,0.6,2.5,1.4,3.7
	c0.8,1.1,1.9,2,3.1,2.6c1.2,0.6,2.4,1,3.7,1.1l0.1,0c1.5,0.1,2.8-0.2,3.9-0.7c0.1,0,0.1-0.1,0.1-0.2C59.3,21.5,59.2,21.4,59.2,21.4"
	/>
<path fill="#363636" d="M16,21.4c0.4-0.1,0.8-0.2,1.1-0.3c0.8-0.2,1.6-0.4,2.3-0.7c1.1-0.4,2.1-0.8,3.1-1.3c1-0.5,1.9-1.1,2.8-1.8
	c1-0.7,1.8-1.6,2.6-2.4c0,0,0.1-0.1,0.2,0c0.1,0,0.1,0.1,0.1,0.2c-0.1,1.2-0.6,2.5-1.4,3.7c-0.8,1.1-1.9,2-3.1,2.6
	c-1.2,0.6-2.4,1-3.7,1.1l-0.2,0c-1.5,0.1-2.8-0.2-3.9-0.7c-0.1,0-0.1-0.1-0.1-0.2C15.9,21.5,15.9,21.4,16,21.4"/>
<path fill="#363636" d="M45.3,43.4c-2.1-1.8-4.9-2.8-7.7-2.8c-2.8,0-5.6,1-7.7,2.8c-1.1,0.9-1.9,2-2.6,3.2c-0.7,1.3-1,2.6-1,3.8
	c0,0.3,0.2,0.6,0.5,0.7c0.3,0.1,0.6,0,0.8-0.2c0.8-1,1.5-1.8,2.2-2.4c0.8-0.7,1.6-1.2,2.4-1.6c1.7-0.8,3.5-1.3,5.4-1.3
	c1.9,0,3.7,0.4,5.3,1.3c1.7,0.9,3.3,2.2,4.6,4c0.1,0.2,0.3,0.3,0.6,0.3c0.1,0,0.2,0,0.2,0c0.3-0.1,0.5-0.4,0.5-0.7
	C48.8,47.9,47.5,45.3,45.3,43.4"/>
<path fill="#6AA3F2" d="M54.3,35.9c-10.8,12.4-9.6,19.5-9.6,19.5c0,5.3,4.3,9.6,9.6,9.6c5.3,0,9.6-4.3,9.6-9.6
	C63.9,55.4,65.1,48.3,54.3,35.9"/>
</svg>
