<?xml version="1.0" encoding="utf-8"?>
<!-- Generator: Adobe Illustrator 18.0.0, SVG Export Plug-In . SVG Version: 6.00 Build 0)  -->
<!DOCTYPE svg PUBLIC "-//W3C//DTD SVG 1.1//EN" "http://www.w3.org/Graphics/SVG/1.1/DTD/svg11.dtd">
<svg version="1.1" id="Capa_1" xmlns="http://www.w3.org/2000/svg" xmlns:xlink="http://www.w3.org/1999/xlink" x="0px" y="0px"
	 viewBox="0 0 75 75" enable-background="new 0 0 75 75" xml:space="preserve">
<g>
	<path fill="#DFCF37" d="M1,37.7c0-20,16.4-36.2,36.5-36.2c20.2,0,36.5,16.2,36.5,36.2c0,20-16.4,36.2-36.5,36.2
		C17.4,73.9,1,57.7,1,37.7"/>
	<g>
		<path fill="#363636" d="M52.7,27.4c0,2.5-1.2,4.5-2.7,4.5c-1.5,0-2.7-2-2.7-4.5c0-2.5,1.2-4.5,2.7-4.5
			C51.5,22.9,52.7,24.9,52.7,27.4"/>
		<path fill="#363636" d="M28.7,27.4c0,2.5-1.2,4.5-2.7,4.5c-1.5,0-2.7-2-2.7-4.5c0-2.5,1.2-4.5,2.7-4.5
			C27.5,22.9,28.7,24.9,28.7,27.4"/>
		<g>
			<path fill="#363636" d="M22.6,42.8c0.9,7.9,7.7,14,15.9,13.9c8.2,0,14.9-6.2,15.8-14L22.6,42.8z"/>
		</g>
	</g>
</g>
</svg>
