<?xml version="1.0" encoding="utf-8"?>
<!-- Generator: Adobe Illustrator 18.0.0, SVG Export Plug-In . SVG Version: 6.00 Build 0)  -->
<!DOCTYPE svg PUBLIC "-//W3C//DTD SVG 1.1//EN" "http://www.w3.org/Graphics/SVG/1.1/DTD/svg11.dtd">
<svg version="1.1" id="Capa_1" xmlns="http://www.w3.org/2000/svg" xmlns:xlink="http://www.w3.org/1999/xlink" x="0px" y="0px"
	 viewBox="0 0 75 75" enable-background="new 0 0 75 75" xml:space="preserve">
<g>
	<g>
		<g>
			<path fill="#DFCF37" d="M9.4,62.5C-17.2,24.7,24.3-16.8,62.2,9.8c1.2,0.8,2.3,1.9,3.1,3.1c26.5,37.8-14.9,79.2-52.8,52.7
				C11.3,64.8,10.3,63.7,9.4,62.5z"/>
		</g>
		<g>
			<path fill="#DFCF37" d="M56.3,6.7c3.6,5.6,5.7,12.4,5.7,19.6c0,20.1-16.3,36.3-36.3,36.3c-7,0-13.5-2-19-5.4
				C13.2,67.3,24.5,74,37.3,74c20.1,0,36.3-16.3,36.3-36.3C73.7,24.5,66.7,13.1,56.3,6.7z"/>
		</g>
		<g>
			<path fill="#DFCF37" d="M5.9,41.5C5.9,22.9,21,7.8,39.7,7.8c10.9,0,20.6,5.2,26.7,13.2C60.6,10.8,49.7,4,37.2,4
				C18.5,4,3.4,19.1,3.4,37.8c0,7.7,2.6,14.9,7,20.6C7.6,53.4,5.9,47.6,5.9,41.5z"/>
		</g>
	</g>
	<g>
		<path fill="#363636" d="M52.8,55.1c-0.9-7.8-7.5-13.8-15.4-13.8c-8,0-14.6,6-15.4,13.8H52.8z"/>
	</g>
	<path fill="#D26669" d="M21.9,55.1c0,0,13-9.6,30.9,0H21.9z"/>
	<g>
		<g>
			<path fill="#363636" d="M17.7,38.3c-0.5,0-0.9-0.2-1.2-0.6C16,37,16.1,36,16.8,35.5l4.6-4.1l-4.8-3.2c-0.7-0.4-1-1.4-0.5-2.1
				c0.4-0.7,1.4-1,2.1-0.5l7.4,4.3c0.4,0.3,0.7,0.7,0.8,1.2c0,0.5-0.2,1-0.6,1.3l-7,5.5C18.4,38.2,18.1,38.3,17.7,38.3z"/>
		</g>
		<g>
			<path fill="#363636" d="M56.9,38.3c-0.3,0-0.7-0.1-0.9-0.3l-7-5.5c-0.4-0.3-0.6-0.8-0.6-1.3c0-0.5,0.3-1,0.8-1.2l7.4-4.3
				c0.7-0.4,1.7-0.2,2.1,0.5c0.4,0.7,0.2,1.7-1.1,2.1L52,31.4l5.8,4.1c0.7,0.5,0.8,1.5,0.3,2.2C57.8,38.1,57.4,38.3,56.9,38.3z"/>
		</g>
	</g>
</g>
</svg>
