<?xml version="1.0" encoding="utf-8"?>
<!-- Generator: Adobe Illustrator 18.0.0, SVG Export Plug-In . SVG Version: 6.00 Build 0)  -->
<!DOCTYPE svg PUBLIC "-//W3C//DTD SVG 1.1//EN" "http://www.w3.org/Graphics/SVG/1.1/DTD/svg11.dtd">
<svg version="1.1" id="Capa_1" xmlns="http://www.w3.org/2000/svg" xmlns:xlink="http://www.w3.org/1999/xlink" x="0px" y="0px"
	 viewBox="0 0 75 75" enable-background="new 0 0 75 75" xml:space="preserve">
<path fill="#DFCF37" d="M1.2,37.7c0-20.1,16.3-36.4,36.4-36.4c20.1,0,36.4,16.3,36.4,36.4c0,20.1-16.3,36.4-36.4,36.4
	C17.5,74.1,1.2,57.8,1.2,37.7"/>
<path fill="#DFCF37" d="M56.7,6.6c3.6,5.7,5.7,12.4,5.7,19.6c0,20.1-16.3,36.4-36.4,36.4c-7,0-13.5-2-19.1-5.4
	c6.5,10.1,17.8,16.8,30.7,16.8c20.1,0,36.4-16.3,36.4-36.4C74.1,24.5,67.1,13,56.7,6.6"/>
<path fill="#363636" d="M18,38.2c-0.5,0-0.9-0.2-1.2-0.6C16.2,37,16.4,36,17,35.5l5.3-4.1l-5.4-3.2c-0.7-0.4-1-1.4-0.5-2.1
	c0.4-0.7,1.4-1,2.1-0.5l7.4,4.3c0.4,0.3,0.7,0.7,0.8,1.2c0,0.5-0.2,1-0.6,1.3l-7,5.5C18.6,38.1,18.3,38.2,18,38.2"/>
<path fill="#363636" d="M57.3,38.2c-0.3,0-0.7-0.1-0.9-0.3l-7-5.5c-0.4-0.3-0.6-0.8-0.6-1.3c0-0.5,0.3-1,0.8-1.2l7.4-4.3
	c0.7-0.4,1.7-0.2,2.1,0.5c0.4,0.7,0.2,1.7-0.5,2.1L53,31.4l5.3,4.1c0.7,0.5,0.8,1.5,0.3,2.2C58.2,38,57.7,38.2,57.3,38.2"/>
<path fill="#363636" d="M16.8,42.5C17.9,53,26.8,61.1,37.6,61.1c10.8,0,19.7-8.1,20.9-18.6H16.8z"/>
</svg>
