<?xml version="1.0" encoding="utf-8"?>
<!-- Generator: Adobe Illustrator 18.0.0, SVG Export Plug-In . SVG Version: 6.00 Build 0)  -->
<!DOCTYPE svg PUBLIC "-//W3C//DTD SVG 1.1//EN" "http://www.w3.org/Graphics/SVG/1.1/DTD/svg11.dtd">
<svg version="1.1" id="Capa_1" xmlns="http://www.w3.org/2000/svg" xmlns:xlink="http://www.w3.org/1999/xlink" x="0px" y="0px"
	 viewBox="0 0 112.3 131.3" enable-background="new 0 0 112.3 131.3" xml:space="preserve">
<path fill="#FFFFFF" d="M31.4,123.3c-9.9-5.4-17.3-12.8-22.3-22.5c-5-9.6-7.5-20.7-7.5-33.3c0-12.9,2.3-24.2,6.8-34
	C13,23.7,20,16,29.3,10.4c9.4-5.6,21-8.4,35-8.4c9.8,0,18.2,0.9,25.1,2.8c6.9,1.8,13.4,4.8,19.4,8.9v24.1h-30V23.6
	c-3.7-1.4-8.3-2.1-13.9-2.1c-11,0-19.3,4-25,12.1c-5.7,8.1-8.6,19.4-8.6,33.9c0,14.3,3.2,25.2,9.5,32.9c6.4,7.6,15.8,11.5,28.3,11.5
	c5.8,0,11.2-0.7,16-2c4.8-1.3,9.6-3.5,14.4-6.6l10.3,16.4c-6.5,4.5-12.8,7.5-18.9,9.2c-6.1,1.6-13.9,2.5-23.3,2.5
	C53.4,131.3,41.3,128.7,31.4,123.3z"/>
</svg>
