<svg id="home" xmlns="http://www.w3.org/2000/svg" viewBox="0 0 411.95 58.17"><defs><style>.cls-1{fill:#fff;}</style></defs><title>brand-logo-w</title><path class="cls-1" d="M445.73,4871.12q-5.71-5.4-5.7-15.71,0-11.07,5.28-16.69t15-5.62q9.28,0,14,5.37t4.73,14.65v3.84H446.84q0,7.57,3.83,11a14.44,14.44,0,0,0,10,3.45,29.17,29.17,0,0,0,6.26-.55,14.58,14.58,0,0,0,4.39-1.75v-2.64h6.22v5.37a27.1,27.1,0,0,1-7.58,3.54,34.13,34.13,0,0,1-9.37,1.15Q451.43,4876.53,445.73,4871.12Zm26.91-18.86q0-7.07-3-10.56t-9.41-3.49q-6.56,0-10,3.75t-3.41,10.31h25.8Z" transform="translate(-440.02 -4818.36)"/><path class="cls-1" d="M481.24,4870.23H484a3,3,0,0,0,2.3-.72,3.48,3.48,0,0,0,.68-2.43V4827a3.32,3.32,0,0,0-.68-2.38,3.18,3.18,0,0,0-2.3-.68h-2.73v-5h12.52v48.21a3.49,3.49,0,0,0,.68,2.43,3.06,3.06,0,0,0,2.3.72h2.73v5H481.24v-5Z" transform="translate(-440.02 -4818.36)"/><path class="cls-1" d="M513.8,4873a23.45,23.45,0,0,1-9.92-10,32,32,0,0,1-3.32-14.86,35.87,35.87,0,0,1,3-15.16,23,23,0,0,1,9.29-10.31q6.26-3.75,15.63-3.75a44,44,0,0,1,11.2,1.23,28.18,28.18,0,0,1,8.64,4v10.74H535v-6.31a17.76,17.76,0,0,0-6.22-.94q-7.32,0-11.16,5.41t-3.83,15.12q0,9.54,4.26,14.65t12.6,5.11a26.45,26.45,0,0,0,7.11-.89,24.39,24.39,0,0,0,6.43-2.94l4.6,7.32a28,28,0,0,1-8.44,4.09,40.86,40.86,0,0,1-10.39,1.1Q520.39,4876.53,513.8,4873Z" transform="translate(-440.02 -4818.36)"/><path class="cls-1" d="M553.06,4873.51a10.42,10.42,0,0,1-3.71-8.56q0-6.31,4.17-9.41t12.26-3.62l9-.6v-4.77a5.11,5.11,0,0,0-1.19-3.79,5.53,5.53,0,0,0-3.92-1.15,9.32,9.32,0,0,0-5.37,1.62v3.07H553.1v-8.43a32.33,32.33,0,0,1,17.12-4.77q9.2,0,13.67,4t4.47,10.82v15.84a3.51,3.51,0,0,0,.64,2.35,2.65,2.65,0,0,0,2.09.72h1.28v8.43H581l-1.19-5.36a17.85,17.85,0,0,1-6.51,5.15,23.69,23.69,0,0,1-9.24,1.49Q556.77,4876.53,553.06,4873.51Zm19.8-7a6.06,6.06,0,0,0,2-4.9v-3.24l-7.66.6a7.25,7.25,0,0,0-4.22,1.36,4.46,4.46,0,0,0-1.23,3.49q0,4.35,5.45,4.34A8.6,8.6,0,0,0,572.86,4866.53Z" transform="translate(-440.02 -4818.36)"/><path class="cls-1" d="M595.95,4866.57h1.61q3.41,0,3.41-3.24v-17a3.25,3.25,0,0,0-.76-2.39,3.4,3.4,0,0,0-2.47-.77h-1.79v-8.77H609.4l0.59,5.54q5.36-6.82,15.59-6.82,7.41,0,10.86,3.62t3.45,10.69v16q0,3.15,3.32,3.15h2v8.69H626.43v-27.77q0-3.24-1.32-4.64a5.54,5.54,0,0,0-4.21-1.4,6.64,6.64,0,0,0-4.77,1.62,6.5,6.5,0,0,0-1.7,4.94v15.42a3.51,3.51,0,0,0,.68,2.38,3,3,0,0,0,2.3.77h1.7v8.69H595.95v-8.69Z" transform="translate(-440.02 -4818.36)"/><path class="cls-1" d="M658,4874.11a18.83,18.83,0,0,1-8.18-7.2,21.41,21.41,0,0,1-3-11.58q0-10.82,6.13-16.52t16.87-5.71a31.36,31.36,0,0,1,9.83,1.32,26.18,26.18,0,0,1,7.79,4.3v9.71H676.24v-4.77a9.32,9.32,0,0,0-2.81-1.19,16.31,16.31,0,0,0-3.66-.34,8.48,8.48,0,0,0-7,3.32q-2.64,3.32-2.64,9.88,0,6.22,3.19,9.2t9.07,3a18.65,18.65,0,0,0,11.16-3.24l4.34,7a25.42,25.42,0,0,1-7.88,4.13,37.21,37.21,0,0,1-10.26,1.15A27.47,27.47,0,0,1,658,4874.11Z" transform="translate(-440.02 -4818.36)"/><path class="cls-1" d="M691.48,4866.57h2a3.57,3.57,0,0,0,2.6-.81,3.44,3.44,0,0,0,.81-2.51v-16.78a3.7,3.7,0,0,0-.77-2.56,3.3,3.3,0,0,0-2.55-.85h-2.13v-8.69h18.91v29q0,3.15,3.32,3.15h2v8.69H691.48v-8.69Zm5.2-48.21h13.8v10.22h-13.8v-10.22Z" transform="translate(-440.02 -4818.36)"/><path class="cls-1" d="M719.34,4866.57h2a3.57,3.57,0,0,0,2.6-.81,3.43,3.43,0,0,0,.81-2.51v-33a3.65,3.65,0,0,0-.64-2.43,2.91,2.91,0,0,0-2.26-.72h-2.55v-8.26h18.91v44.54q0,3.15,3.32,3.15h2v8.69H719.34v-8.69Z" transform="translate(-440.02 -4818.36)"/><path class="cls-1" d="M747.19,4866.57h2a3.57,3.57,0,0,0,2.6-.81,3.44,3.44,0,0,0,.81-2.51v-33a3.65,3.65,0,0,0-.64-2.43,2.9,2.9,0,0,0-2.25-.72h-2.56v-8.26H766.1v44.54q0,3.15,3.32,3.15h2v8.69H747.19v-8.69Z" transform="translate(-440.02 -4818.36)"/><path class="cls-1" d="M779.53,4871.12q-6-5.4-6-16,0-11.07,5.66-16.56t16.14-5.49q10.22,0,15.55,5.58t5.33,14.95v4.09H786.9q0,5.54,2.3,8t7.24,2.46a17.46,17.46,0,0,0,7.07-1.28v-3.15h11.24v7a21.13,21.13,0,0,1-7.71,4.34,35.24,35.24,0,0,1-10.77,1.45Q785.53,4876.53,779.53,4871.12Zm23.38-20.65q0-4.43-2-6.69a7.25,7.25,0,0,0-5.79-2.26q-4.09,0-6.17,2.3t-2.09,6.65h16Z" transform="translate(-440.02 -4818.36)"/><path class="cls-1" d="M819.87,4866.57h1.62a3.57,3.57,0,0,0,2.6-.81,3.3,3.3,0,0,0,.81-2.43v-17.12a3.39,3.39,0,0,0-.72-2.34,3.13,3.13,0,0,0-2.42-.81H820v-8.69h16l1,4.34a8.59,8.59,0,0,1,4.26-3.32,16.37,16.37,0,0,1,5.79-1H852v8.69h-6.9q-3.58,0-5.15,1.66t-1.58,5.15v13.54a3.36,3.36,0,0,0,.73,2.38,3.22,3.22,0,0,0,2.43.77h1.62v8.69H819.87v-8.69Z" transform="translate(-440.02 -4818.36)"/></svg>