<svg id="Layer_1" data-name="Layer 1" xmlns="http://www.w3.org/2000/svg" viewBox="0 0 217.52 30.72"><defs><style>.cls-1{fill:#e7d117;}</style></defs><title>brand-logo</title><path class="cls-1" d="M637.26,294.16q-3-2.85-3-8.3,0-5.85,2.79-8.82t7.91-3q4.9,0,7.4,2.83a11.3,11.3,0,0,1,2.49,7.74v2h-17q0,4,2,5.82a7.63,7.63,0,0,0,5.3,1.82,15.42,15.42,0,0,0,3.3-.29,7.73,7.73,0,0,0,2.32-.92v-1.39h3.28v2.83a14.24,14.24,0,0,1-4,1.87,17.91,17.91,0,0,1-4.95.61A11,11,0,0,1,637.26,294.16Zm14.21-10q0-3.73-1.6-5.58a6.22,6.22,0,0,0-5-1.84,6.75,6.75,0,0,0-5.26,2,7.79,7.79,0,0,0-1.8,5.44h13.63Z" transform="translate(-634.25 -266.3)"/><path class="cls-1" d="M656,293.69h1.44a1.6,1.6,0,0,0,1.21-.38A1.84,1.84,0,0,0,659,292V270.84a1.76,1.76,0,0,0-.36-1.26,1.68,1.68,0,0,0-1.21-.36H656v-2.65h6.61V292a1.84,1.84,0,0,0,.36,1.28,1.6,1.6,0,0,0,1.21.38h1.44v2.65H656v-2.65Z" transform="translate(-634.25 -266.3)"/><path class="cls-1" d="M673.2,295.13a12.38,12.38,0,0,1-5.24-5.29,16.85,16.85,0,0,1-1.76-7.85,18.92,18.92,0,0,1,1.6-8,12.13,12.13,0,0,1,4.9-5.44,15.84,15.84,0,0,1,8.25-2,23.21,23.21,0,0,1,5.91.65,14.85,14.85,0,0,1,4.57,2.09V275h-7.06v-3.33a9.35,9.35,0,0,0-3.28-.49A6.76,6.76,0,0,0,675.2,274q-2,2.86-2,8t2.25,7.74q2.25,2.69,6.66,2.7a14,14,0,0,0,3.76-.47,12.78,12.78,0,0,0,3.39-1.55l2.43,3.87a14.83,14.83,0,0,1-4.46,2.16,21.61,21.61,0,0,1-5.48.58A17.69,17.69,0,0,1,673.2,295.13Z" transform="translate(-634.25 -266.3)"/><path class="cls-1" d="M693.93,295.42a5.5,5.5,0,0,1-2-4.52,5.8,5.8,0,0,1,2.2-5,12.06,12.06,0,0,1,6.48-1.91l4.77-.32v-2.52a2.69,2.69,0,0,0-.63-2,2.91,2.91,0,0,0-2.07-.61,4.92,4.92,0,0,0-2.84.86V281H694V276.6a17.07,17.07,0,0,1,9-2.52q4.86,0,7.22,2.11a7.29,7.29,0,0,1,2.36,5.71v8.36a1.86,1.86,0,0,0,.34,1.24,1.41,1.41,0,0,0,1.1.38h0.67v4.45h-6l-0.63-2.83a9.45,9.45,0,0,1-3.44,2.72,12.5,12.5,0,0,1-4.88.79Q695.89,297,693.93,295.42Zm10.45-3.69a3.2,3.2,0,0,0,1-2.59v-1.71l-4,.31a3.84,3.84,0,0,0-2.22.72,2.35,2.35,0,0,0-.65,1.84q0,2.3,2.88,2.29A4.53,4.53,0,0,0,704.39,291.73Z" transform="translate(-634.25 -266.3)"/><path class="cls-1" d="M716.58,291.75h0.85a1.55,1.55,0,0,0,1.8-1.71v-9a1.73,1.73,0,0,0-.4-1.26,1.81,1.81,0,0,0-1.31-.4h-0.94v-4.63h7.11l0.31,2.92q2.83-3.6,8.23-3.6,3.91,0,5.73,1.91a7.89,7.89,0,0,1,1.82,5.64v8.46a1.51,1.51,0,0,0,1.76,1.67h1v4.59h-9.89V281.68a3.52,3.52,0,0,0-.7-2.45,2.93,2.93,0,0,0-2.23-.74,3.51,3.51,0,0,0-2.52.86,3.44,3.44,0,0,0-.9,2.61v8.14a1.85,1.85,0,0,0,.36,1.26,1.56,1.56,0,0,0,1.21.41h0.9v4.59H716.58v-4.59Z" transform="translate(-634.25 -266.3)"/><path class="cls-1" d="M749.35,295.73a9.93,9.93,0,0,1-4.32-3.8,11.3,11.3,0,0,1-1.57-6.12q0-5.71,3.23-8.73t8.91-3a16.61,16.61,0,0,1,5.19.7,13.81,13.81,0,0,1,4.12,2.27v5.13H759v-2.52a5,5,0,0,0-1.49-.63,8.8,8.8,0,0,0-1.94-.18,4.48,4.48,0,0,0-3.69,1.75,8.26,8.26,0,0,0-1.39,5.22,6.34,6.34,0,0,0,1.69,4.86,6.76,6.76,0,0,0,4.79,1.57,9.85,9.85,0,0,0,5.89-1.71l2.29,3.68a13.38,13.38,0,0,1-4.16,2.18,19.57,19.57,0,0,1-5.42.61A14.5,14.5,0,0,1,749.35,295.73Z" transform="translate(-634.25 -266.3)"/><path class="cls-1" d="M767,291.75h1.08a1.88,1.88,0,0,0,1.37-.43,1.81,1.81,0,0,0,.42-1.33v-8.86a2,2,0,0,0-.4-1.35,1.75,1.75,0,0,0-1.35-.45H767v-4.59h10v15.33a1.51,1.51,0,0,0,1.75,1.67h1.08v4.59H767v-4.59Zm2.74-25.45h7.28v5.39h-7.28V266.3Z" transform="translate(-634.25 -266.3)"/><path class="cls-1" d="M781.74,291.75h1.08a1.88,1.88,0,0,0,1.37-.43,1.81,1.81,0,0,0,.43-1.33v-17.4a1.92,1.92,0,0,0-.34-1.28,1.53,1.53,0,0,0-1.19-.38h-1.35v-4.36h10v23.52a1.51,1.51,0,0,0,1.75,1.67h1.08v4.59H781.74v-4.59Z" transform="translate(-634.25 -266.3)"/><path class="cls-1" d="M796.44,291.75h1.08a1.88,1.88,0,0,0,1.37-.43,1.82,1.82,0,0,0,.43-1.33v-17.4a1.93,1.93,0,0,0-.34-1.28,1.54,1.54,0,0,0-1.19-.38h-1.35v-4.36h10v23.52a1.51,1.51,0,0,0,1.75,1.67h1.08v4.59H796.44v-4.59Z" transform="translate(-634.25 -266.3)"/><path class="cls-1" d="M813.51,294.16q-3.17-2.85-3.17-8.43,0-5.85,3-8.75t8.52-2.9q5.4,0,8.21,2.95a11,11,0,0,1,2.81,7.89v2.16H817.4a6.1,6.1,0,0,0,1.21,4.23,5,5,0,0,0,3.82,1.3,9.24,9.24,0,0,0,3.73-.68v-1.66h5.94V294a11.16,11.16,0,0,1-4.07,2.3,18.66,18.66,0,0,1-5.69.76Q816.69,297,813.51,294.16Zm12.35-10.91a5.25,5.25,0,0,0-1-3.53,3.83,3.83,0,0,0-3.06-1.19,4.18,4.18,0,0,0-3.26,1.21,5,5,0,0,0-1.1,3.51h8.46Z" transform="translate(-634.25 -266.3)"/><path class="cls-1" d="M834.82,291.75h0.85a1.87,1.87,0,0,0,1.37-.43,1.75,1.75,0,0,0,.43-1.28v-9a1.81,1.81,0,0,0-.38-1.24,1.66,1.66,0,0,0-1.28-.43h-0.95v-4.59h8.46l0.54,2.29a4.53,4.53,0,0,1,2.25-1.75,8.62,8.62,0,0,1,3.06-.54h2.61v4.59h-3.64a3.62,3.62,0,0,0-2.72.88,3.84,3.84,0,0,0-.83,2.72v7.15a1.79,1.79,0,0,0,.38,1.26,1.71,1.71,0,0,0,1.28.41h0.85v4.59H834.82v-4.59Z" transform="translate(-634.25 -266.3)"/></svg>